<svg width="24" height="24" viewBox="0 0 24 24" fill="none" xmlns="http://www.w3.org/2000/svg">
    <path fill-rule="evenodd" clip-rule="evenodd" d="M12 13a10 10 0 0 0 8.91-5.454 1 1 0 0 1 1.78.91 12.029 12.029 0 0 1-2 2.82l2.017 2.017a1 1 0 0 1-1.414 1.414l-2.1-2.1a11.976 11.976 0 0 1-3.074 1.668l.843 2.95a1 1 0 0 1-1.923.55l-.85-2.974a12.069 12.069 0 0 1-4.378 0l-.85 2.974a1 1 0 1 1-1.923-.55l.843-2.95a11.973 11.973 0 0 1-3.074-1.668l-2.1 2.1a1 1 0 1 1-1.414-1.414l2.017-2.017a12.028 12.028 0 0 1-2.001-2.82 1 1 0 0 1 1.78-.911A10 10 0 0 0 12 13z" fill="#323233"/>
</svg>
