<svg width="50" height="50" viewBox="0 0 50 50" fill="none" xmlns="http://www.w3.org/2000/svg">
    <path fill-rule="evenodd" clip-rule="evenodd" d="M17.104 15.974a2.718 2.718 0 0 1 3.8-.235l3.587 3.11L36.938 6.701a2.689 2.689 0 0 1 3.802 3.802L26.77 24.82a2.933 2.933 0 0 1-4.173.026l-5.346-5.083a2.718 2.718 0 0 1-.147-3.788zm1.488 12.151H30.965a.625.625 0 0 1 .55.921 32.966 32.966 0 0 0-3.912 15.033.624.624 0 0 1-.625.608H22.58a.625.625 0 0 1-.624-.608 32.947 32.947 0 0 0-3.911-15.033.624.624 0 0 1 .548-.921z" fill="#fff"/>
</svg>
