<svg width="240" height="93" viewBox="0 0 240 93" fill="none" xmlns="http://www.w3.org/2000/svg">
    <path fill-rule="evenodd" clip-rule="evenodd" d="M123.391 23.256c0-2.172 0-3.555-1.766-3.555H90c0 1.578.113 3.24.22 4.793.092 1.36.179 2.635.179 3.695v18.848c0 13.423 4.794 20.859 19.892 20.859 8.485 0 19.733-4.277 23.685-11.284V79.36c0 2.468 0 4.64 2.662 4.64 2.467 0 6.615-2.172 6.615-4.64V24.705c0-2.708.172-4.414.315-5.836.102-1.015.19-1.884.19-2.869h-10.264c0 .985.087 1.854.189 2.869.143 1.422.315 3.128.315 5.836V43.88c0 10.854-12.335 17.005-23.982 17.005-7.794 0-10.024-4.274-10.024-13.551v-1.383h18.378c2.082 0 3.848-1.784 3.848-3.55 0-2.468 0-3.558-1.766-3.558h-20.46V26.81h19.551c2.082 0 3.848-1.68 3.848-3.553zm67.746 20.178a5.041 5.041 0 0 1-10.082.056c-2.466 3.84-5.515 7.16-9.046 9.63a1.818 1.818 0 0 1-2.271-.14l-2.8-3.225c5.369-4.913 10.516-12.75 12.585-23.261h-5.47c-2.702-.023-2.922-4.236-2.992-6.812h15.189c1.7 0 1.7 1.33 1.695 3.396a46.258 46.258 0 0 1-4.432 16.026 5.041 5.041 0 0 1 7.624 4.33zm-23.233.866a3.903 3.903 0 1 0-1.728-7.405c2.076-4.092 3.394-8.698 3.84-13.805v-.017c-.008-2.07-.012-3.391-1.708-3.391h-16.259c.073 2.58.29 6.812 3.01 6.812h6.636c-2.069 10.345-7.196 15.661-12.566 20.571l2.809 3.232a1.818 1.818 0 0 0 2.271.139c3.923-2.745 7.229-6.03 9.797-9.844a3.903 3.903 0 0 0 3.898 3.708zm31.257-25.483c-.102-.986-.19-1.831-.19-2.817h10.275c0 .986-.088 1.83-.19 2.817-.143 1.38-.315 3.038-.315 5.747v43.23c0 8.094-4.433 16.206-20.856 16.206-16.423 0-20.856-8.112-20.856-16.602v-8.004c0-.663-.07-1.435-.142-2.234-.076-.856-.156-1.742-.156-2.56h32.745V24.564c0-2.709-.172-4.366-.315-5.747zm.305 50.365c0 4.541-3.638 7.796-11.435 7.796-7.796 0-11.77-3.058-11.77-7.796v-7.126h23.212l-.007 7.126zM31.814 29.712a5.055 5.055 0 0 1 7.068-.438l6.672 5.784 23.15-22.592a5.001 5.001 0 0 1 7.072 7.072L49.792 46.164a5.455 5.455 0 0 1-7.761.047l-9.943-9.453a5.055 5.055 0 0 1-.274-7.046zm2.767 22.6h23.015a1.162 1.162 0 0 1 1.022 1.714 61.317 61.317 0 0 0-7.277 27.96 1.161 1.161 0 0 1-1.162 1.133h-8.182a1.162 1.162 0 0 1-1.161-1.133 61.28 61.28 0 0 0-7.275-27.96 1.161 1.161 0 0 1 1.02-1.713z" fill="#fff"/>
</svg>
