<svg width="85" height="63" viewBox="0 0 85 63" fill="none" xmlns="http://www.w3.org/2000/svg">
    <path d="M5.884 4.196 8.714 9.1H3.054l2.83-4.903z" fill="#fff"/>
    <circle cx="12.421" cy="6.615" r="2.615" fill="#fff"/>
    <path d="m18.959 4.196 2.83 4.903h-5.66l2.83-4.903zM24.967 8.742c1.169 0 2.008-.678 2.142-1.693v-.024h-.889l-.003.017c-.13.558-.608.917-1.25.917-.864 0-1.401-.72-1.401-1.875v-.007c0-1.152.537-1.872 1.397-1.872.64 0 1.124.397 1.254.997l.003.014h.889v-.028c-.12-1.036-.994-1.766-2.146-1.766-1.436 0-2.325 1.015-2.325 2.658v.007c0 1.636.892 2.655 2.329 2.655zm4.94 0c1.169 0 2.008-.678 2.142-1.693v-.024h-.889l-.003.017c-.13.558-.608.917-1.25.917-.864 0-1.401-.72-1.401-1.875v-.007c0-1.152.537-1.872 1.397-1.872.64 0 1.124.397 1.254.997l.003.014h.889v-.028c-.12-1.036-.994-1.766-2.146-1.766-1.436 0-2.324 1.015-2.324 2.658v.007c0 1.636.892 2.655 2.328 2.655z" fill="#fff"/>
    <path d="M2.615 19.114a5.23 5.23 0 0 1 5.23-5.23h68.643a5.23 5.23 0 0 1 5.23 5.23v11.113a5.23 5.23 0 0 1-5.23 5.23H7.845a5.23 5.23 0 0 1-5.23-5.23V19.114z" fill="#F6F5EE"/>
    <rect x="8.499" y="22.056" width="11.767" height="5.23" rx="2.615" fill="#919191"/>
    <circle cx="24.189" cy="24.671" r="2.615" fill="#A8AAAA"/>
    <rect x="28.111" y="22.056" width="11.767" height="5.23" rx="2.615" fill="#919191"/>
    <path d="M7.845 14.537h68.643V13.23H7.845v1.307zm73.22 4.577v11.113h1.307V19.114h-1.307zm-4.577 15.69H7.845v1.307h68.643v-1.307zm-73.22-4.577V19.114H1.962v11.113H3.27zm4.577 4.577a4.576 4.576 0 0 1-4.576-4.577H1.96a5.884 5.884 0 0 0 5.884 5.884v-1.307zm73.22-4.577a4.576 4.576 0 0 1-4.577 4.577v1.307a5.884 5.884 0 0 0 5.884-5.883h-1.307zm-4.577-15.69a4.576 4.576 0 0 1 4.577 4.577h1.307a5.884 5.884 0 0 0-5.884-5.884v1.307zM7.845 13.23a5.884 5.884 0 0 0-5.884 5.884H3.27a4.576 4.576 0 0 1 4.576-4.577V13.23z" fill="#000"/>
    <path d="M2.615 43.956a5.23 5.23 0 0 1 5.23-5.23h68.643a5.23 5.23 0 0 1 5.23 5.23v10.46a5.23 5.23 0 0 1-5.23 5.23H7.845a5.23 5.23 0 0 1-5.23-5.23v-10.46z" fill="#F6F5EE"/>
    <circle cx="11.114" cy="49.186" r="2.615" fill="#A8AAAA"/>
    <circle cx="18.305" cy="49.186" r="2.615" fill="#A8AAAA"/>
    <circle cx="25.496" cy="49.186" r="2.615" fill="#A8AAAA"/>
    <circle cx="32.687" cy="49.186" r="2.615" fill="#A8AAAA"/>
    <circle cx="39.879" cy="49.186" r="2.615" fill="#A8AAAA"/>
    <circle cx="47.07" cy="49.186" r="2.615" fill="#A8AAAA"/>
    <circle cx="54.261" cy="49.186" r="2.615" fill="#A8AAAA"/>
    <circle cx="61.452" cy="49.186" r="2.615" fill="#A8AAAA"/>
    <g clip-path="url(#tdescqmgaa)">
        <path d="M71.258 47.007a2.18 2.18 0 0 1 2.18 2.18c0 .282-.057.548-.157.797l1.272 1.272a5.15 5.15 0 0 0 1.495-2.07 5.155 5.155 0 0 0-4.794-3.269c-.61 0-1.194.11-1.735.305l.942.942c.248-.1.514-.157.797-.157zm-4.358-1.19.994.994.2.2a5.144 5.144 0 0 0-1.63 2.175 5.154 5.154 0 0 0 6.703 2.903l.183.183 1.277 1.273.554-.554-7.727-7.727-.554.553zm2.41 2.41.676.676a1.229 1.229 0 0 0-.035.283c0 .724.584 1.308 1.307 1.308.096 0 .192-.013.284-.035l.675.675a2.16 2.16 0 0 1-.959.231 2.18 2.18 0 0 1-2.179-2.179c0-.344.087-.667.231-.959zm1.879-.34 1.373 1.373.008-.07c0-.723-.584-1.307-1.307-1.307l-.074.004z" fill="#A8AAAA"/>
    </g>
    <path d="M7.845 39.38h68.643v-1.307H7.845v1.307zm73.22 4.576v10.46h1.307v-10.46h-1.307zm-4.577 15.037H7.845V60.3h68.643v-1.307zm-73.22-4.577v-10.46H1.962v10.46H3.27zm4.577 4.577a4.576 4.576 0 0 1-4.576-4.577H1.96A5.884 5.884 0 0 0 7.845 60.3v-1.307zm73.22-4.577a4.576 4.576 0 0 1-4.577 4.577V60.3a5.884 5.884 0 0 0 5.884-5.883h-1.307zM76.488 39.38a4.576 4.576 0 0 1 4.577 4.576h1.307a5.884 5.884 0 0 0-5.884-5.883v1.307zM7.845 38.073a5.884 5.884 0 0 0-5.884 5.883H3.27a4.576 4.576 0 0 1 4.576-4.576v-1.307z" fill="#000"/>
    <defs>
        <clipPath id="tdescqmgaa">
            <path fill="#fff" transform="translate(66.028 43.956)" d="M0 0h10.46v10.46H0z"/>
        </clipPath>
    </defs>
</svg>
