<svg width="148" height="394" viewBox="0 0 148 394" fill="none" xmlns="http://www.w3.org/2000/svg">
    <g filter="url(#lqsivp1uja)">
        <rect x="4" y="2" width="140" height="149" rx="8" fill="#fff"/>
        <rect x="12" y="10" width="19" height="8" rx="4" fill="#C4C4C4"/>
        <rect x="32" y="10" width="8" height="8" rx="4" fill="#C4C4C4"/>
        <rect x="53" y="10" width="8" height="8" rx="4" fill="#C4C4C4"/>
        <rect x="42" y="10" width="10" height="8" rx="4" fill="#C4C4C4"/>
        <circle cx="14.5" cy="28.5" r="2.5" fill="#C4C4C4"/>
        <circle cx="33.5" cy="28.5" r="2.5" fill="#C4C4C4"/>
        <circle cx="52.5" cy="28.5" r="2.5" fill="#C4C4C4"/>
        <circle cx="71.5" cy="28.5" r="2.5" fill="#C4C4C4"/>
        <circle cx="90.5" cy="28.5" r="2.5" fill="#C4C4C4"/>
        <circle cx="109.5" cy="28.5" r="2.5" fill="#C4C4C4"/>
        <circle cx="128.5" cy="28.5" r="2.5" fill="#C4C4C4"/>
        <circle cx="112" cy="44" r="5" fill="#C4C4C4"/>
        <circle cx="131" cy="44" r="5" fill="#C4C4C4"/>
        <circle cx="17" cy="67" r="5" fill="#C4C4C4"/>
        <circle cx="36" cy="67" r="5" fill="#C4C4C4"/>
        <circle cx="55" cy="67" r="5" fill="#C4C4C4"/>
        <circle cx="74" cy="67" r="5" fill="#C4C4C4"/>
        <circle cx="93" cy="67" r="5" fill="#C4C4C4"/>
        <circle cx="112" cy="67" r="5" fill="#C4C4C4"/>
        <circle cx="131" cy="67" r="5" fill="#C4C4C4"/>
        <circle cx="17" cy="90" r="5" fill="#C4C4C4"/>
        <circle cx="36" cy="90" r="5" fill="#C4C4C4"/>
        <circle cx="55" cy="90" r="5" fill="#C4C4C4"/>
        <circle cx="74" cy="90" r="5" fill="#C4C4C4"/>
        <circle cx="93" cy="90" r="5" fill="#C4C4C4"/>
        <circle cx="112" cy="90" r="5" fill="#C4C4C4"/>
        <circle cx="131" cy="90" r="5" fill="#C4C4C4"/>
        <circle cx="17" cy="113" r="5" fill="#C4C4C4"/>
        <circle cx="36" cy="113" r="5" fill="#C4C4C4"/>
        <circle cx="55" cy="113" r="5" fill="#C4C4C4"/>
        <circle cx="74" cy="113" r="5" fill="#C4C4C4"/>
        <circle cx="93" cy="113" r="5" fill="#C4C4C4"/>
        <circle cx="112" cy="113" r="5" fill="#C4C4C4"/>
        <circle cx="131" cy="113" r="5" fill="#C4C4C4"/>
        <circle cx="17" cy="136" r="5" fill="#C4C4C4"/>
        <circle cx="36" cy="136" r="5" fill="#C4C4C4"/>
        <circle cx="55" cy="136" r="5" fill="#C4C4C4"/>
        <circle cx="74" cy="136" r="5" fill="#C4C4C4"/>
        <circle cx="93" cy="136" r="5" fill="#C4C4C4"/>
        <circle cx="112" cy="136" r="5" fill="#C4C4C4"/>
        <circle cx="131" cy="136" r="5" fill="#C4C4C4"/>
        <rect x="4.5" y="2.5" width="139" height="148" rx="7.5" stroke="#F2F2F2"/>
    </g>
    <rect x="2" y="164" width="144" height="8" rx="4" fill="#fff"/>
    <rect x="2" y="176" width="32" height="32" rx="8" fill="#fff"/>
    <rect x="38" y="176" width="32" height="32" rx="8" fill="#fff"/>
    <rect x="74" y="176" width="32" height="32" rx="8" fill="#fff"/>
    <rect x="2" y="221" width="144" height="8" rx="4" fill="#fff"/>
    <rect x="2" y="233" width="32" height="32" rx="8" fill="#fff"/>
    <rect x="38" y="233" width="32" height="32" rx="8" fill="#fff"/>
    <rect x="74" y="233" width="32" height="32" rx="8" fill="#fff"/>
    <rect x="110" y="233" width="32" height="32" rx="8" fill="#fff"/>
    <rect x="2" y="269" width="32" height="32" rx="8" fill="#fff"/>
    <rect x="38" y="269" width="32" height="32" rx="8" fill="#fff"/>
    <rect x="74" y="269" width="32" height="32" rx="8" fill="#fff"/>
    <rect x="2" y="314" width="144" height="8" rx="4" fill="#fff"/>
    <rect x="2" y="326" width="32" height="32" rx="8" fill="#fff"/>
    <rect x="38" y="326" width="32" height="32" rx="8" fill="#fff"/>
    <rect x="74" y="326" width="32" height="32" rx="8" fill="#fff"/>
    <rect x="110" y="326" width="32" height="32" rx="8" fill="#fff"/>
    <rect x="2" y="362" width="32" height="32" rx="8" fill="#fff"/>
    <rect x="38" y="362" width="32" height="32" rx="8" fill="#fff"/>
    <rect x="74" y="362" width="32" height="32" rx="8" fill="#fff"/>
    <rect x="110" y="362" width="32" height="32" rx="8" fill="#fff"/>
    <defs>
        <filter id="lqsivp1uja" x="0" y="2" width="148" height="157" filterUnits="userSpaceOnUse" color-interpolation-filters="sRGB">
            <feFlood flood-opacity="0" result="BackgroundImageFix"/>
            <feColorMatrix in="SourceAlpha" values="0 0 0 0 0 0 0 0 0 0 0 0 0 0 0 0 0 0 127 0" result="hardAlpha"/>
            <feOffset dy="4"/>
            <feGaussianBlur stdDeviation="2"/>
            <feComposite in2="hardAlpha" operator="out"/>
            <feColorMatrix values="0 0 0 0 0 0 0 0 0 0 0 0 0 0 0 0 0 0 0.25 0"/>
            <feBlend in2="BackgroundImageFix" result="effect1_dropShadow_1263_100031"/>
            <feBlend in="SourceGraphic" in2="effect1_dropShadow_1263_100031" result="shape"/>
        </filter>
    </defs>
</svg>
