<svg width="28" height="28" viewBox="0 0 28 28" fill="none" xmlns="http://www.w3.org/2000/svg">
    <path fill-rule="evenodd" clip-rule="evenodd" d="M8.167 1.167c.644 0 1.166.522 1.166 1.166V3.5h9.334V2.333a1.167 1.167 0 1 1 2.333 0V3.5h2.074c1.432 0 2.593 1.103 2.593 2.463v17.24c0 1.36-1.161 2.463-2.593 2.463H4.926c-1.432 0-2.593-1.102-2.593-2.463V5.963c0-1.36 1.161-2.463 2.593-2.463H7V2.333c0-.644.522-1.167 1.167-1.167zM7 5.833H4.926c-.11 0-.185.041-.226.08a.136.136 0 0 0-.031.04.018.018 0 0 0-.002.01v3.37h18.666v-3.37c0-.005 0-.006-.002-.01a.137.137 0 0 0-.03-.04.324.324 0 0 0-.227-.08H21V7a1.167 1.167 0 1 1-2.333 0V5.833H9.333V7A1.167 1.167 0 1 1 7 7V5.833zm16.333 17.37V11.666H4.667v11.537c0 .005 0 .006.002.01.002.006.01.021.03.04.042.04.116.08.227.08h18.148c.11 0 .185-.04.226-.08a.137.137 0 0 0 .031-.04l.002-.004v-.006z" fill="#323233"/>
</svg>
