<svg width="29" height="28" viewBox="0 0 29 28" fill="none" xmlns="http://www.w3.org/2000/svg">
    <path d="M.5 4a4 4 0 0 1 4-4h20a4 4 0 0 1 4 4v20a4 4 0 0 1-4 4h-20a4 4 0 0 1-4-4V4z" fill="#115B40"/>
    <path d="M21.57 7.53a.99.99 0 1 1 1.4 1.4L10.93 20.97l-4.9-4.9a.99.99 0 1 1 1.4-1.4l3.5 3.5L21.57 7.53zm2.815-1.415a2.991 2.991 0 0 0-4.23 0L10.93 15.34l-2.085-2.085a2.991 2.991 0 0 0-4.23 4.23l5.293 5.293c.565.565 1.48.565 2.044 0l12.433-12.433a2.991 2.991 0 0 0 0-4.23z" fill="#fff"/>
</svg>
