<svg width="28" height="28" viewBox="0 0 28 28" fill="none" xmlns="http://www.w3.org/2000/svg">
    <path d="M0 4a4 4 0 0 1 4-4h20a4 4 0 0 1 4 4v20a4 4 0 0 1-4 4H4a4 4 0 0 1-4-4V4z" fill="#115B40"/>
    <path fill-rule="evenodd" clip-rule="evenodd" d="M9 3a1 1 0 0 1 1 1v1h8V4a1 1 0 1 1 2 0v1h1.778C23.005 5 24 5.945 24 7.111V21.89C24 23.055 23.005 24 21.778 24H6.222C4.995 24 4 23.055 4 21.889V7.11C4 5.945 4.995 5 6.222 5H8V4a1 1 0 0 1 1-1zM8 7H6.222a.278.278 0 0 0-.194.068.116.116 0 0 0-.026.035A.016.016 0 0 0 6 7.11V10h16V7.111c0-.004 0-.005-.002-.008a.118.118 0 0 0-.026-.035.277.277 0 0 0-.194-.068H20v1a1 1 0 1 1-2 0V7h-8v1a1 1 0 0 1-2 0V7zm14 14.889V12H6v9.889c0 .004 0 .005.002.008.002.005.01.018.026.035.035.033.1.068.194.068h15.556a.278.278 0 0 0 .194-.068.12.12 0 0 0 .026-.035.016.016 0 0 0 .002-.008z" fill="#fff"/>
</svg>
