<svg width="25" height="25" viewBox="0 0 25 25" fill="none" xmlns="http://www.w3.org/2000/svg">
    <path fill-rule="evenodd" clip-rule="evenodd" d="M12.5 6.5a1 1 0 0 0-1 1v4.723l-2.858 4.762a1 1 0 0 0 1.715 1.03l2.989-4.981a.995.995 0 0 0 .154-.544V7.5a1 1 0 0 0-1-1zM16.173 3.198a9.942 9.942 0 0 0-1.886-.54l-.357 1.969c.52.094 1.024.239 1.507.43l.736-1.86zm3.279 2.114c-.471-.455-.985-.863-1.536-1.218l-1.084 1.68c.441.285.853.612 1.23.976l1.39-1.438zm2.224 3.207a9.94 9.94 0 0 0-.954-1.714l-1.643 1.14c.296.427.552.885.762 1.37l1.835-.796zm.758 2.835a10.11 10.11 0 0 0-.16-.968l-1.954.421a8.09 8.09 0 0 1 .18 1.561l2-.036c-.006-.324-.028-.65-.066-.978zm-.631 4.82c.24-.605.42-1.236.539-1.887l-1.968-.356a7.95 7.95 0 0 1-.43 1.507l1.859.736zm-2.114 3.278c.455-.47.863-.985 1.218-1.535l-1.681-1.084a8.05 8.05 0 0 1-.975 1.23l1.438 1.389zm-3.207 2.224a9.948 9.948 0 0 0 1.714-.954l-1.14-1.643a7.945 7.945 0 0 1-1.37.762l.796 1.835zm-7.529.176c.59.225 1.206.395 1.84.504l.34-1.97a7.937 7.937 0 0 1-1.47-.403l-.71 1.87zm4.694.582c.328-.037.65-.09.967-.159l-.42-1.955a8.096 8.096 0 0 1-1.54.18l.041 2c.316-.007.633-.029.952-.066z" fill="#323233"/>
    <path d="M11.583 4.553a8 8 0 0 0-3.287 14.754l-1.052 1.7a9.974 9.974 0 0 1-4.678-7.36C1.933 8.16 5.867 3.2 11.354 2.567c.328-.038.654-.06.978-.066l.036 2c-.26.004-.522.022-.785.052z" fill="#323233"/>
</svg>
