<svg width="120" height="70" viewBox="0 0 120 70" fill="none" xmlns="http://www.w3.org/2000/svg">
    <path fill-rule="evenodd" clip-rule="evenodd" d="M108.971 0h10.275c0 .986-.088 1.766-.19 2.677-.143 1.276-.315 2.807-.315 5.516v44.631c0 8.094-4.433 16.206-20.856 16.206-16.423 0-20.856-8.112-20.856-16.602v-8.003c0-.664-.07-1.436-.141-2.235-.077-.855-.157-1.742-.157-2.56h32.745V8.194c0-2.709-.172-4.24-.315-5.516-.102-.91-.19-1.691-.19-2.677zm-10.94 62.008c7.797 0 11.435-3.254 11.435-7.796l.008-7.125H86.261v7.125c0 4.738 3.974 7.796 11.77 7.796zM33.391 6.885c0-2.172 0-3.555-1.766-3.555H0c0 1.578.113 3.24.22 4.793.092 1.36.179 2.635.179 3.695v18.848c0 13.423 4.794 20.859 19.892 20.859 8.485 0 19.733-4.277 23.685-11.284v22.542c0 2.468 0 4.64 2.662 4.64 2.467 0 6.615-2.172 6.615-4.64V8.333c0-2.707.172-4.238.315-5.514.102-.91.19-1.69.19-2.675H43.494c0 .984.087 1.765.19 2.675.143 1.276.314 2.807.314 5.515v19.175c0 10.855-12.335 17.006-23.982 17.006-7.794 0-10.024-4.274-10.024-13.551V29.58H28.37c2.082 0 3.848-1.784 3.848-3.55 0-2.468 0-3.558-1.766-3.558H9.992V10.438h19.551c2.082 0 3.848-1.68 3.848-3.553zm67.746 20.178a5.041 5.041 0 0 1-10.082.056c-2.466 3.839-5.515 7.16-9.046 9.63a1.82 1.82 0 0 1-2.27-.14l-2.801-3.226c5.369-4.912 10.516-12.749 12.585-23.26h-5.47C81.35 10.1 81.13 5.886 81.06 3.31H96.25c1.7 0 1.7 1.33 1.695 3.397v.017a46.285 46.285 0 0 1-4.432 16.009 5.041 5.041 0 0 1 7.624 4.33zm-23.233.866a3.903 3.903 0 1 0-1.728-7.405c2.076-4.093 3.394-8.698 3.84-13.805v-.018c-.008-2.068-.013-3.39-1.708-3.39h-16.26c.074 2.58.29 6.812 3.01 6.812h6.637c-2.07 10.345-7.196 15.66-12.565 20.57l2.808 3.233a1.82 1.82 0 0 0 2.27.139c3.924-2.745 7.23-6.03 9.798-9.844a3.903 3.903 0 0 0 3.898 3.707z" fill="#1D1D1B"/>
</svg>
